<mxfile host="app.diagrams.net" modified="2021-06-24T09:44:12.908Z" agent="5.0 (Windows NT 10.0; Win64; x64) AppleWebKit/537.36 (KHTML, like Gecko) Chrome/91.0.4472.77 Safari/537.36" etag="i0sUvW8OKM5oQNAfXIX_" version="14.8.0" type="github">
  <diagram id="rS34iyTz5Kt70QU_3P6H" name="Page-1">
    <mxGraphModel dx="1038" dy="547" grid="1" gridSize="10" guides="1" tooltips="1" connect="1" arrows="1" fold="1" page="1" pageScale="1" pageWidth="1169" pageHeight="827" math="0" shadow="0">
      <root>
        <mxCell id="0" />
        <mxCell id="1" parent="0" />
        <mxCell id="_UjocnNlun8BWjFGyJYD-27" value="" style="rounded=0;whiteSpace=wrap;html=1;fillColor=#1C9DFF;sketch=1;" vertex="1" parent="1">
          <mxGeometry x="930" y="290" width="190" height="40" as="geometry" />
        </mxCell>
        <mxCell id="_UjocnNlun8BWjFGyJYD-26" value="" style="rounded=0;whiteSpace=wrap;html=1;fillColor=#1C9DFF;sketch=1;" vertex="1" parent="1">
          <mxGeometry x="670" y="290" width="120" height="40" as="geometry" />
        </mxCell>
        <mxCell id="_UjocnNlun8BWjFGyJYD-19" value="" style="rounded=0;whiteSpace=wrap;html=1;fillColor=#1C9DFF;sketch=1;" vertex="1" parent="1">
          <mxGeometry x="770" y="120" width="260" height="40" as="geometry" />
        </mxCell>
        <mxCell id="_UjocnNlun8BWjFGyJYD-8" value="" style="rounded=0;whiteSpace=wrap;html=1;fillColor=#1C9DFF;sketch=1;" vertex="1" parent="1">
          <mxGeometry x="400" y="310" width="120" height="40" as="geometry" />
        </mxCell>
        <mxCell id="_UjocnNlun8BWjFGyJYD-1" value="" style="endArrow=none;html=1;sketch=1;" edge="1" parent="1">
          <mxGeometry width="50" height="50" relative="1" as="geometry">
            <mxPoint x="600" y="630" as="sourcePoint" />
            <mxPoint x="600" y="70" as="targetPoint" />
          </mxGeometry>
        </mxCell>
        <mxCell id="_UjocnNlun8BWjFGyJYD-2" value="" style="rounded=0;whiteSpace=wrap;html=1;fillColor=#1C9DFF;sketch=1;" vertex="1" parent="1">
          <mxGeometry x="160" y="120" width="260" height="40" as="geometry" />
        </mxCell>
        <mxCell id="_UjocnNlun8BWjFGyJYD-3" value="Merge Sort" style="text;html=1;strokeColor=none;fillColor=none;align=center;verticalAlign=middle;whiteSpace=wrap;rounded=0;fontFamily=中国式手写风;fontSize=36;fontColor=#FF0000;sketch=1;" vertex="1" parent="1">
          <mxGeometry x="190" y="50" width="200" height="40" as="geometry" />
        </mxCell>
        <mxCell id="_UjocnNlun8BWjFGyJYD-4" value="" style="rounded=0;whiteSpace=wrap;html=1;fontFamily=中国式手写风;fontSize=36;fontColor=#FF0000;sketch=1;fillColor=#FF0000;" vertex="1" parent="1">
          <mxGeometry x="850" y="120" width="30" height="40" as="geometry" />
        </mxCell>
        <mxCell id="_UjocnNlun8BWjFGyJYD-5" value="" style="endArrow=classic;html=1;fontFamily=中国式手写风;fontSize=36;fontColor=#FF0000;strokeColor=#FF0000;" edge="1" parent="1">
          <mxGeometry width="50" height="50" relative="1" as="geometry">
            <mxPoint x="190" y="210" as="sourcePoint" />
            <mxPoint x="140" y="270" as="targetPoint" />
          </mxGeometry>
        </mxCell>
        <mxCell id="_UjocnNlun8BWjFGyJYD-6" value="" style="endArrow=classic;html=1;fontFamily=中国式手写风;fontSize=36;fontColor=#FF0000;strokeColor=#FF0000;" edge="1" parent="1">
          <mxGeometry width="50" height="50" relative="1" as="geometry">
            <mxPoint x="390" y="210" as="sourcePoint" />
            <mxPoint x="440" y="270" as="targetPoint" />
          </mxGeometry>
        </mxCell>
        <mxCell id="_UjocnNlun8BWjFGyJYD-7" value="" style="rounded=0;whiteSpace=wrap;html=1;fillColor=#1C9DFF;sketch=1;" vertex="1" parent="1">
          <mxGeometry x="50" y="310" width="120" height="40" as="geometry" />
        </mxCell>
        <mxCell id="_UjocnNlun8BWjFGyJYD-9" value="" style="rounded=0;whiteSpace=wrap;html=1;fontFamily=中国式手写风;fontSize=36;fontColor=#FF0000;sketch=1;fillColor=#FF0000;" vertex="1" parent="1">
          <mxGeometry x="710" y="290" width="30" height="40" as="geometry" />
        </mxCell>
        <mxCell id="_UjocnNlun8BWjFGyJYD-10" value="" style="rounded=0;whiteSpace=wrap;html=1;fontFamily=中国式手写风;fontSize=36;fontColor=#FF0000;sketch=1;fillColor=#FF0000;" vertex="1" parent="1">
          <mxGeometry x="1050" y="290" width="30" height="40" as="geometry" />
        </mxCell>
        <mxCell id="_UjocnNlun8BWjFGyJYD-11" value="" style="endArrow=classic;html=1;fontFamily=中国式手写风;fontSize=36;fontColor=#FF0000;strokeColor=#FF0000;" edge="1" parent="1">
          <mxGeometry width="50" height="50" relative="1" as="geometry">
            <mxPoint x="80" y="384" as="sourcePoint" />
            <mxPoint x="30" y="444" as="targetPoint" />
          </mxGeometry>
        </mxCell>
        <mxCell id="_UjocnNlun8BWjFGyJYD-12" value="" style="endArrow=classic;html=1;fontFamily=中国式手写风;fontSize=36;fontColor=#FF0000;strokeColor=#FF0000;" edge="1" parent="1">
          <mxGeometry width="50" height="50" relative="1" as="geometry">
            <mxPoint x="125" y="384" as="sourcePoint" />
            <mxPoint x="175" y="444" as="targetPoint" />
          </mxGeometry>
        </mxCell>
        <mxCell id="_UjocnNlun8BWjFGyJYD-13" value="" style="endArrow=classic;html=1;fontFamily=中国式手写风;fontSize=36;fontColor=#FF0000;strokeColor=#FF0000;" edge="1" parent="1">
          <mxGeometry width="50" height="50" relative="1" as="geometry">
            <mxPoint x="430" y="384" as="sourcePoint" />
            <mxPoint x="380" y="444" as="targetPoint" />
          </mxGeometry>
        </mxCell>
        <mxCell id="_UjocnNlun8BWjFGyJYD-14" value="" style="endArrow=classic;html=1;fontFamily=中国式手写风;fontSize=36;fontColor=#FF0000;strokeColor=#FF0000;" edge="1" parent="1">
          <mxGeometry width="50" height="50" relative="1" as="geometry">
            <mxPoint x="490" y="384" as="sourcePoint" />
            <mxPoint x="540" y="444" as="targetPoint" />
          </mxGeometry>
        </mxCell>
        <mxCell id="_UjocnNlun8BWjFGyJYD-15" value="" style="rounded=0;whiteSpace=wrap;html=1;fillColor=#1C9DFF;sketch=1;" vertex="1" parent="1">
          <mxGeometry x="10" y="460" width="70" height="40" as="geometry" />
        </mxCell>
        <mxCell id="_UjocnNlun8BWjFGyJYD-16" value="" style="rounded=0;whiteSpace=wrap;html=1;fillColor=#1C9DFF;sketch=1;" vertex="1" parent="1">
          <mxGeometry x="150" y="460" width="70" height="40" as="geometry" />
        </mxCell>
        <mxCell id="_UjocnNlun8BWjFGyJYD-17" value="" style="rounded=0;whiteSpace=wrap;html=1;fillColor=#1C9DFF;sketch=1;" vertex="1" parent="1">
          <mxGeometry x="340" y="460" width="70" height="40" as="geometry" />
        </mxCell>
        <mxCell id="_UjocnNlun8BWjFGyJYD-18" value="" style="rounded=0;whiteSpace=wrap;html=1;fillColor=#1C9DFF;sketch=1;" vertex="1" parent="1">
          <mxGeometry x="515" y="460" width="70" height="40" as="geometry" />
        </mxCell>
        <mxCell id="_UjocnNlun8BWjFGyJYD-20" value="" style="endArrow=classic;html=1;fontFamily=中国式手写风;fontSize=36;fontColor=#FF0000;strokeColor=#FF0000;" edge="1" parent="1">
          <mxGeometry width="50" height="50" relative="1" as="geometry">
            <mxPoint x="810" y="200" as="sourcePoint" />
            <mxPoint x="760" y="260" as="targetPoint" />
          </mxGeometry>
        </mxCell>
        <mxCell id="_UjocnNlun8BWjFGyJYD-21" value="" style="endArrow=classic;html=1;fontFamily=中国式手写风;fontSize=36;fontColor=#FF0000;strokeColor=#FF0000;" edge="1" parent="1">
          <mxGeometry width="50" height="50" relative="1" as="geometry">
            <mxPoint x="700" y="370" as="sourcePoint" />
            <mxPoint x="650" y="430" as="targetPoint" />
          </mxGeometry>
        </mxCell>
        <mxCell id="_UjocnNlun8BWjFGyJYD-22" value="" style="endArrow=classic;html=1;fontFamily=中国式手写风;fontSize=36;fontColor=#FF0000;strokeColor=#FF0000;" edge="1" parent="1">
          <mxGeometry width="50" height="50" relative="1" as="geometry">
            <mxPoint x="980" y="370" as="sourcePoint" />
            <mxPoint x="930" y="430" as="targetPoint" />
          </mxGeometry>
        </mxCell>
        <mxCell id="_UjocnNlun8BWjFGyJYD-23" value="" style="endArrow=classic;html=1;fontFamily=中国式手写风;fontSize=36;fontColor=#FF0000;strokeColor=#FF0000;" edge="1" parent="1">
          <mxGeometry width="50" height="50" relative="1" as="geometry">
            <mxPoint x="970" y="200" as="sourcePoint" />
            <mxPoint x="1020" y="260" as="targetPoint" />
          </mxGeometry>
        </mxCell>
        <mxCell id="_UjocnNlun8BWjFGyJYD-24" value="" style="endArrow=classic;html=1;fontFamily=中国式手写风;fontSize=36;fontColor=#FF0000;strokeColor=#FF0000;" edge="1" parent="1">
          <mxGeometry width="50" height="50" relative="1" as="geometry">
            <mxPoint x="760" y="370" as="sourcePoint" />
            <mxPoint x="810" y="430" as="targetPoint" />
          </mxGeometry>
        </mxCell>
        <mxCell id="_UjocnNlun8BWjFGyJYD-25" value="" style="endArrow=classic;html=1;fontFamily=中国式手写风;fontSize=36;fontColor=#FF0000;strokeColor=#FF0000;" edge="1" parent="1">
          <mxGeometry width="50" height="50" relative="1" as="geometry">
            <mxPoint x="1060" y="370" as="sourcePoint" />
            <mxPoint x="1110" y="430" as="targetPoint" />
          </mxGeometry>
        </mxCell>
        <mxCell id="_UjocnNlun8BWjFGyJYD-28" value="" style="rounded=0;whiteSpace=wrap;html=1;fillColor=#1C9DFF;sketch=1;" vertex="1" parent="1">
          <mxGeometry x="620" y="460" width="50" height="40" as="geometry" />
        </mxCell>
        <mxCell id="_UjocnNlun8BWjFGyJYD-29" value="" style="rounded=0;whiteSpace=wrap;html=1;fillColor=#1C9DFF;sketch=1;" vertex="1" parent="1">
          <mxGeometry x="780" y="460" width="50" height="40" as="geometry" />
        </mxCell>
        <mxCell id="_UjocnNlun8BWjFGyJYD-30" value="" style="rounded=0;whiteSpace=wrap;html=1;fillColor=#1C9DFF;sketch=1;" vertex="1" parent="1">
          <mxGeometry x="870" y="460" width="150" height="40" as="geometry" />
        </mxCell>
        <mxCell id="_UjocnNlun8BWjFGyJYD-31" value="" style="rounded=0;whiteSpace=wrap;html=1;fillColor=#1C9DFF;sketch=1;" vertex="1" parent="1">
          <mxGeometry x="1100" y="460" width="50" height="40" as="geometry" />
        </mxCell>
        <mxCell id="_UjocnNlun8BWjFGyJYD-32" value="Quick Sort" style="text;html=1;strokeColor=none;fillColor=none;align=center;verticalAlign=middle;whiteSpace=wrap;rounded=0;fontFamily=中国式手写风;fontSize=36;fontColor=#FF0000;sketch=1;" vertex="1" parent="1">
          <mxGeometry x="800" y="50" width="200" height="40" as="geometry" />
        </mxCell>
      </root>
    </mxGraphModel>
  </diagram>
</mxfile>
